#N canvas 204 23 1180 835 12;
#X declare -path ../pmosc;
#X obj 541 809 dac~;
#X obj 541 776 *~;
#X msg 559 743 0;
#X obj 599 703 loadbang;
#X msg 599 743 0.25;
#X msg 646 743 0.5;
#X msg 687 743 1;
#X obj 541 183 pmosc_rec;
#X obj 799 756 delay 100;
#X msg 799 781 \; pd dsp 1;
#X text 876 756 Enable DSP after delay for headless mode;
#X msg 595 35 100;
#X obj 541 86 pack;
#X obj 541 109 poly 16 1;
#X obj 541 132 - 1;
#X obj 541 155 pack f f f;
#X obj 541 63 makenote 100 500;
#X msg 650 36 100;
#X obj 541 9 r \$0-notes;
#X obj 31 162 s \$0-notes;
#X obj 644 7 loadbang;
#X obj 31 131 maj_penta_noteplayer;
#X obj 31 84 tgl 15 0 empty empty empty 17 7 0 10 -262144 -1 -1 0 1
;
#X floatatom 99 82 5 0 0 0 - - -;
#X floatatom 168 83 5 0 0 0 - - -;
#X msg 168 54 700;
#X msg 99 54 60;
#X obj 99 20 loadbang;
#X obj 247 18 declare -path ../pmosc;
#X connect 1 0 0 0;
#X connect 1 0 0 1;
#X connect 2 0 1 1;
#X connect 3 0 4 0;
#X connect 3 0 8 0;
#X connect 4 0 1 1;
#X connect 5 0 1 1;
#X connect 6 0 1 1;
#X connect 7 0 1 0;
#X connect 8 0 9 0;
#X connect 11 0 16 1;
#X connect 12 0 13 0;
#X connect 13 0 14 0;
#X connect 13 1 15 1;
#X connect 13 2 15 2;
#X connect 14 0 15 0;
#X connect 15 0 7 0;
#X connect 16 0 12 0;
#X connect 16 1 12 1;
#X connect 17 0 16 2;
#X connect 18 0 16 0;
#X connect 20 0 11 0;
#X connect 20 0 17 0;
#X connect 21 0 19 0;
#X connect 22 0 21 0;
#X connect 23 0 21 1;
#X connect 24 0 21 2;
#X connect 25 0 24 0;
#X connect 26 0 23 0;
#X connect 27 0 26 0;
#X connect 27 0 25 0;
